<svg xmlns="http://www.w3.org/2000/svg" viewBox="0 0 1440 900" width="1440" height="900">
  <defs>
    <radialGradient id="bgGrad" cx="40%" cy="55%" r="85%">
      <stop offset="0%" stop-color="#0b1628"/>
      <stop offset="100%" stop-color="#050810"/>
    </radialGradient>
    <radialGradient id="glowBlue" cx="50%" cy="50%" r="50%">
      <stop offset="0%" stop-color="#2563eb" stop-opacity="0.18"/>
      <stop offset="100%" stop-color="#2563eb" stop-opacity="0"/>
    </radialGradient>
    <radialGradient id="glowPurple" cx="50%" cy="50%" r="50%">
      <stop offset="0%" stop-color="#7c3aed" stop-opacity="0.12"/>
      <stop offset="100%" stop-color="#7c3aed" stop-opacity="0"/>
    </radialGradient>
    <linearGradient id="barBlue" x1="0%" y1="0%" x2="100%" y2="0%">
      <stop offset="0%" stop-color="#2563eb" stop-opacity="0.9"/>
      <stop offset="100%" stop-color="#3b82f6" stop-opacity="0.7"/>
    </linearGradient>
    <linearGradient id="barGreen" x1="0%" y1="0%" x2="100%" y2="0%">
      <stop offset="0%" stop-color="#059669" stop-opacity="0.9"/>
      <stop offset="100%" stop-color="#34d399" stop-opacity="0.7"/>
    </linearGradient>
    <linearGradient id="barAmber" x1="0%" y1="0%" x2="100%" y2="0%">
      <stop offset="0%" stop-color="#d97706" stop-opacity="0.9"/>
      <stop offset="100%" stop-color="#fbbf24" stop-opacity="0.7"/>
    </linearGradient>
    <linearGradient id="barPurple" x1="0%" y1="0%" x2="100%" y2="0%">
      <stop offset="0%" stop-color="#7c3aed" stop-opacity="0.9"/>
      <stop offset="100%" stop-color="#a78bfa" stop-opacity="0.7"/>
    </linearGradient>
    <linearGradient id="barRed" x1="0%" y1="0%" x2="100%" y2="0%">
      <stop offset="0%" stop-color="#dc2626" stop-opacity="0.9"/>
      <stop offset="100%" stop-color="#f87171" stop-opacity="0.7"/>
    </linearGradient>
    <linearGradient id="barTeal" x1="0%" y1="0%" x2="100%" y2="0%">
      <stop offset="0%" stop-color="#0891b2" stop-opacity="0.9"/>
      <stop offset="100%" stop-color="#22d3ee" stop-opacity="0.7"/>
    </linearGradient>
    <radialGradient id="vig" cx="50%" cy="50%" r="80%">
      <stop offset="30%" stop-color="transparent"/>
      <stop offset="100%" stop-color="#030609" stop-opacity="0.65"/>
    </radialGradient>
  </defs>

  <rect width="1440" height="900" fill="url(#bgGrad)"/>
  <ellipse cx="360" cy="480" rx="500" ry="380" fill="url(#glowBlue)" opacity="0.7"/>
  <ellipse cx="1100" cy="300" rx="380" ry="280" fill="url(#glowPurple)" opacity="0.6"/>

  <!-- Divider -->
  <rect x="0" y="0" width="780" height="900" fill="#0a1220" opacity="0.4"/>
  <line x1="780" y1="0" x2="780" y2="900" stroke="#1e3a5f" stroke-width="1.5" opacity="0.6" stroke-dasharray="4,3"/>

  <!-- GANTT header -->
  <rect x="160" y="28" width="600" height="28" rx="3" fill="#0f1e35" opacity="0.9"/>
  <g font-family="JetBrains Mono,monospace" font-size="10" fill="#4a6fa5" text-anchor="middle" opacity="0.7">
    <text x="215" y="47">JAN</text><text x="315" y="47">FEB</text><text x="415" y="47">MAR</text>
    <text x="515" y="47">APR</text><text x="615" y="47">MAY</text><text x="715" y="47">JUN</text>
  </g>
  <g stroke="#1e3a5f" stroke-width="0.6" opacity="0.5">
    <line x1="265" y1="56" x2="265" y2="830"/>
    <line x1="365" y1="56" x2="365" y2="830"/>
    <line x1="465" y1="56" x2="465" y2="830"/>
    <line x1="565" y1="56" x2="565" y2="830"/>
    <line x1="665" y1="56" x2="665" y2="830"/>
    <line x1="765" y1="56" x2="765" y2="830"/>
  </g>
  <!-- Today line -->
  <line x1="490" y1="28" x2="490" y2="830" stroke="#2563eb" stroke-width="1.2" opacity="0.45" stroke-dasharray="3,3"/>
  <rect x="478" y="28" width="24" height="13" rx="2" fill="#2563eb" opacity="0.8"/>
  <text x="490" y="39" text-anchor="middle" font-family="JetBrains Mono,monospace" font-size="8" fill="#fff" opacity="0.9">TODAY</text>

  <!-- EPIC rows -->
  <rect x="0" y="62" width="160" height="20" fill="#1a2744" opacity="0.6"/>
  <text x="8" y="76" font-family="JetBrains Mono,monospace" font-size="9" fill="#7c3aed" font-weight="bold">◆ API PLATFORM</text>

  <rect x="0" y="82" width="160" height="26" fill="#0d1830" opacity="0.4"/>
  <text x="12" y="99" font-family="Inter,sans-serif" font-size="10" fill="#94a3b8">Auth service</text>
  <rect x="166" y="86" width="188" height="16" rx="3" fill="url(#barBlue)" opacity="0.85"/>
  <text x="170" y="97" font-family="Inter,sans-serif" font-size="9" fill="#dbeafe">Design + Build</text>

  <rect x="0" y="108" width="160" height="26" fill="#0d1830" opacity="0.25"/>
  <text x="12" y="125" font-family="Inter,sans-serif" font-size="10" fill="#94a3b8">Token refresh</text>
  <rect x="266" y="112" width="138" height="16" rx="3" fill="url(#barBlue)" opacity="0.7"/>
  <text x="270" y="123" font-family="Inter,sans-serif" font-size="9" fill="#dbeafe">In progress</text>

  <rect x="0" y="134" width="160" height="26" fill="#0d1830" opacity="0.4"/>
  <text x="12" y="151" font-family="Inter,sans-serif" font-size="10" fill="#94a3b8">Rate limiting</text>
  <rect x="366" y="138" width="118" height="16" rx="3" fill="url(#barPurple)" opacity="0.6"/>
  <text x="370" y="149" font-family="Inter,sans-serif" font-size="9" fill="#ede9fe">Planned</text>

  <rect x="0" y="160" width="160" height="26" fill="#0d1830" opacity="0.25"/>
  <text x="12" y="177" font-family="Inter,sans-serif" font-size="10" fill="#94a3b8">Docs + tests</text>
  <rect x="466" y="164" width="98" height="16" rx="3" fill="url(#barPurple)" opacity="0.5"/>
  <text x="470" y="175" font-family="Inter,sans-serif" font-size="9" fill="#ede9fe">Planned</text>

  <rect x="0" y="194" width="160" height="20" fill="#1a2744" opacity="0.6"/>
  <text x="8" y="208" font-family="JetBrains Mono,monospace" font-size="9" fill="#059669" font-weight="bold">◆ CLIENT PORTAL</text>

  <rect x="0" y="214" width="160" height="26" fill="#0d1830" opacity="0.4"/>
  <text x="12" y="231" font-family="Inter,sans-serif" font-size="10" fill="#94a3b8">UI wireframes</text>
  <rect x="166" y="218" width="148" height="16" rx="3" fill="url(#barGreen)" opacity="0.85"/>
  <text x="170" y="229" font-family="Inter,sans-serif" font-size="9" fill="#d1fae5">Done</text>
  <circle cx="312" cy="226" r="4" fill="#22c55e" opacity="0.9"/>

  <rect x="0" y="240" width="160" height="26" fill="#0d1830" opacity="0.25"/>
  <text x="12" y="257" font-family="Inter,sans-serif" font-size="10" fill="#94a3b8">Dashboard</text>
  <rect x="266" y="244" width="178" height="16" rx="3" fill="url(#barGreen)" opacity="0.75"/>
  <text x="270" y="255" font-family="Inter,sans-serif" font-size="9" fill="#d1fae5">In progress</text>

  <rect x="0" y="266" width="160" height="26" fill="#0d1830" opacity="0.4"/>
  <text x="12" y="283" font-family="Inter,sans-serif" font-size="10" fill="#94a3b8">Reports module</text>
  <rect x="416" y="270" width="158" height="16" rx="3" fill="url(#barAmber)" opacity="0.6"/>
  <text x="420" y="281" font-family="Inter,sans-serif" font-size="9" fill="#fef3c7">Blocked</text>
  <text x="568" y="281" font-family="Inter,sans-serif" font-size="9" fill="#f59e0b">!</text>

  <rect x="0" y="300" width="160" height="20" fill="#1a2744" opacity="0.6"/>
  <text x="8" y="314" font-family="JetBrains Mono,monospace" font-size="9" fill="#dc2626" font-weight="bold">◆ MOBILE APP</text>

  <rect x="0" y="320" width="160" height="26" fill="#0d1830" opacity="0.4"/>
  <text x="12" y="337" font-family="Inter,sans-serif" font-size="10" fill="#94a3b8">iOS prototype</text>
  <rect x="166" y="324" width="78" height="16" rx="3" fill="url(#barRed)" opacity="0.85"/>
  <text x="170" y="335" font-family="Inter,sans-serif" font-size="9" fill="#fee2e2">Review</text>

  <rect x="0" y="346" width="160" height="26" fill="#0d1830" opacity="0.25"/>
  <text x="12" y="363" font-family="Inter,sans-serif" font-size="10" fill="#94a3b8">Android build</text>
  <rect x="316" y="350" width="198" height="16" rx="3" fill="url(#barTeal)" opacity="0.65"/>
  <text x="320" y="361" font-family="Inter,sans-serif" font-size="9" fill="#cffafe">Development</text>

  <rect x="0" y="372" width="160" height="26" fill="#0d1830" opacity="0.4"/>
  <text x="12" y="389" font-family="Inter,sans-serif" font-size="10" fill="#94a3b8">Push notifications</text>
  <rect x="516" y="376" width="138" height="16" rx="3" fill="url(#barTeal)" opacity="0.5"/>
  <text x="520" y="387" font-family="Inter,sans-serif" font-size="9" fill="#cffafe">Planned</text>

  <rect x="0" y="406" width="160" height="20" fill="#1a2744" opacity="0.6"/>
  <text x="8" y="420" font-family="JetBrains Mono,monospace" font-size="9" fill="#0891b2" font-weight="bold">◆ DATA PIPELINE</text>

  <rect x="0" y="426" width="160" height="26" fill="#0d1830" opacity="0.4"/>
  <text x="12" y="443" font-family="Inter,sans-serif" font-size="10" fill="#94a3b8">ETL framework</text>
  <rect x="166" y="430" width="258" height="16" rx="3" fill="url(#barTeal)" opacity="0.8"/>
  <text x="170" y="441" font-family="Inter,sans-serif" font-size="9" fill="#cffafe">Active — 68% complete</text>

  <rect x="0" y="452" width="160" height="26" fill="#0d1830" opacity="0.25"/>
  <text x="12" y="469" font-family="Inter,sans-serif" font-size="10" fill="#94a3b8">Warehouse schema</text>
  <rect x="366" y="456" width="178" height="16" rx="3" fill="url(#barAmber)" opacity="0.65"/>
  <text x="370" y="467" font-family="Inter,sans-serif" font-size="9" fill="#fef3c7">In review</text>

  <rect x="0" y="478" width="160" height="26" fill="#0d1830" opacity="0.4"/>
  <text x="12" y="495" font-family="Inter,sans-serif" font-size="10" fill="#94a3b8">Analytics dashboard</text>
  <rect x="516" y="482" width="198" height="16" rx="3" fill="url(#barPurple)" opacity="0.55"/>
  <text x="520" y="493" font-family="Inter,sans-serif" font-size="9" fill="#ede9fe">Planned</text>

  <!-- Fading rows -->
  <rect x="0" y="504" width="760" height="26" fill="#0d1830" opacity="0.28"/>
  <text x="12" y="521" font-family="Inter,sans-serif" font-size="10" fill="#334155" opacity="0.55">Security audit</text>
  <rect x="266" y="508" width="118" height="16" rx="3" fill="#1e3a5f" opacity="0.35"/>

  <rect x="0" y="530" width="760" height="26" fill="#0d1830" opacity="0.18"/>
  <text x="12" y="547" font-family="Inter,sans-serif" font-size="10" fill="#334155" opacity="0.35">Performance tests</text>
  <rect x="416" y="534" width="158" height="16" rx="3" fill="#1e3a5f" opacity="0.22"/>

  <rect x="0" y="556" width="760" height="26" fill="#0d1830" opacity="0.10"/>
  <text x="12" y="573" font-family="Inter,sans-serif" font-size="10" fill="#334155" opacity="0.2">Infrastructure</text>
  <rect x="566" y="560" width="138" height="16" rx="3" fill="#1e3a5f" opacity="0.12"/>

  <!-- Gantt label -->
  <rect x="8" y="846" width="118" height="16" rx="3" fill="#1e3a5f" opacity="0.45"/>
  <text x="67" y="857" text-anchor="middle" font-family="JetBrains Mono,monospace" font-size="8" fill="#4a6fa5" opacity="0.65">GANTT TIMELINE</text>

  <!-- KANBAN columns -->
  <!-- Headers -->
  <rect x="790" y="16" width="145" height="28" rx="4" fill="#1e2d45" opacity="0.85"/>
  <text x="862" y="34" text-anchor="middle" font-family="JetBrains Mono,monospace" font-size="9" fill="#64748b" font-weight="bold">BACKLOG</text>
  <rect x="918" y="21" width="15" height="15" rx="3" fill="#0f1e35"/>
  <text x="925" y="32" text-anchor="middle" font-family="JetBrains Mono,monospace" font-size="8" fill="#64748b">4</text>

  <rect x="945" y="16" width="145" height="28" rx="4" fill="#0e1f14" opacity="0.85"/>
  <text x="1017" y="34" text-anchor="middle" font-family="JetBrains Mono,monospace" font-size="9" fill="#22c55e" font-weight="bold">IN PROGRESS</text>
  <rect x="1072" y="21" width="15" height="15" rx="3" fill="#0a1a0f"/>
  <text x="1079" y="32" text-anchor="middle" font-family="JetBrains Mono,monospace" font-size="8" fill="#22c55e">3</text>

  <rect x="1100" y="16" width="145" height="28" rx="4" fill="#1a1408" opacity="0.85"/>
  <text x="1172" y="34" text-anchor="middle" font-family="JetBrains Mono,monospace" font-size="9" fill="#f59e0b" font-weight="bold">IN TESTING</text>
  <rect x="1227" y="21" width="15" height="15" rx="3" fill="#150f05"/>
  <text x="1234" y="32" text-anchor="middle" font-family="JetBrains Mono,monospace" font-size="8" fill="#f59e0b">2</text>

  <rect x="1255" y="16" width="145" height="28" rx="4" fill="#12101e" opacity="0.85"/>
  <text x="1327" y="34" text-anchor="middle" font-family="JetBrains Mono,monospace" font-size="9" fill="#a78bfa" font-weight="bold">DONE</text>
  <rect x="1382" y="21" width="15" height="15" rx="3" fill="#0e0c18"/>
  <text x="1389" y="32" text-anchor="middle" font-family="JetBrains Mono,monospace" font-size="8" fill="#a78bfa">6</text>

  <!-- Column backgrounds -->
  <rect x="790" y="52" width="145" height="848" rx="4" fill="#0d1828" opacity="0.52"/>
  <rect x="945" y="52" width="145" height="848" rx="4" fill="#0a1a0f" opacity="0.52"/>
  <rect x="1100" y="52" width="145" height="848" rx="4" fill="#14100a" opacity="0.52"/>
  <rect x="1255" y="52" width="145" height="848" rx="4" fill="#0f0d1a" opacity="0.52"/>

  <!-- BACKLOG cards -->
  <rect x="797" y="60" width="130" height="70" rx="5" fill="#131f35" stroke="#1e3a5f" stroke-width="0.8"/>
  <rect x="797" y="60" width="4" height="70" rx="2" fill="#2563eb"/>
  <text x="808" y="74" font-family="Inter,sans-serif" font-size="8" fill="#60a5fa">STORY</text>
  <rect x="870" y="64" width="52" height="12" rx="3" fill="#1a2d45"/>
  <text x="896" y="73" text-anchor="middle" font-family="Inter,sans-serif" font-size="7" fill="#60a5fa">Acme Corp</text>
  <text x="808" y="89" font-family="Inter,sans-serif" font-size="10" fill="#e2e8f0" font-weight="500">Setup CI pipeline</text>
  <text x="808" y="103" font-family="Inter,sans-serif" font-size="9" fill="#64748b">● Alice Johnson</text>
  <text x="808" y="117" font-family="Inter,sans-serif" font-size="8" fill="#475569">Due: Mar 15</text>

  <rect x="797" y="138" width="130" height="62" rx="5" fill="#131f35" stroke="#1e3a5f" stroke-width="0.8" opacity="0.9"/>
  <rect x="797" y="138" width="4" height="62" rx="2" fill="#7c3aed"/>
  <text x="808" y="152" font-family="Inter,sans-serif" font-size="8" fill="#a78bfa">EPIC</text>
  <text x="808" y="167" font-family="Inter,sans-serif" font-size="10" fill="#e2e8f0" font-weight="500">Search refactor</text>
  <text x="808" y="181" font-family="Inter,sans-serif" font-size="9" fill="#64748b">3 stories linked</text>
  <text x="808" y="193" font-family="Inter,sans-serif" font-size="8" fill="#475569">Due: Apr 30</text>

  <rect x="797" y="208" width="130" height="56" rx="5" fill="#1f1010" stroke="#3f1414" stroke-width="0.8" opacity="0.9"/>
  <rect x="797" y="208" width="4" height="56" rx="2" fill="#dc2626"/>
  <text x="808" y="222" font-family="Inter,sans-serif" font-size="8" fill="#f87171">BUG</text>
  <text x="808" y="237" font-family="Inter,sans-serif" font-size="10" fill="#e2e8f0" font-weight="500">Login timeout</text>
  <text x="808" y="251" font-family="Inter,sans-serif" font-size="9" fill="#64748b">● Bob Chen</text>
  <text x="808" y="263" font-family="Inter,sans-serif" font-size="8" fill="#f59e0b">Critical</text>

  <rect x="797" y="272" width="130" height="52" rx="5" fill="#0f1824" stroke="#1a2d42" stroke-width="0.8" opacity="0.6"/>
  <rect x="797" y="272" width="4" height="52" rx="2" fill="#0891b2" opacity="0.7"/>
  <text x="808" y="286" font-family="Inter,sans-serif" font-size="8" fill="#22d3ee" opacity="0.6">STORY</text>
  <text x="808" y="301" font-family="Inter,sans-serif" font-size="10" fill="#94a3b8" font-weight="500" opacity="0.7">Data export CSV</text>
  <text x="808" y="315" font-family="Inter,sans-serif" font-size="9" fill="#475569" opacity="0.5">Unassigned</text>

  <!-- IN PROGRESS cards -->
  <rect x="952" y="60" width="130" height="70" rx="5" fill="#0e1f14" stroke="#1a3d22" stroke-width="0.8"/>
  <rect x="952" y="60" width="4" height="70" rx="2" fill="#059669"/>
  <text x="963" y="74" font-family="Inter,sans-serif" font-size="8" fill="#34d399">STORY</text>
  <rect x="1027" y="64" width="50" height="12" rx="3" fill="#0a2010"/>
  <text x="1052" y="73" text-anchor="middle" font-family="Inter,sans-serif" font-size="7" fill="#34d399">Globex</text>
  <text x="963" y="89" font-family="Inter,sans-serif" font-size="10" fill="#e2e8f0" font-weight="500">User dashboard</text>
  <text x="963" y="103" font-family="Inter,sans-serif" font-size="9" fill="#64748b">● Maria Santos</text>
  <text x="963" y="117" font-family="Inter,sans-serif" font-size="8" fill="#22c55e">71% complete</text>

  <rect x="952" y="138" width="130" height="64" rx="5" fill="#0e1f14" stroke="#1a3d22" stroke-width="0.8" opacity="0.9"/>
  <rect x="952" y="138" width="4" height="64" rx="2" fill="#2563eb"/>
  <text x="963" y="152" font-family="Inter,sans-serif" font-size="8" fill="#60a5fa">STORY</text>
  <text x="963" y="167" font-family="Inter,sans-serif" font-size="10" fill="#e2e8f0" font-weight="500">API rate limiter</text>
  <text x="963" y="181" font-family="Inter,sans-serif" font-size="9" fill="#64748b">● Dev Team</text>
  <text x="963" y="195" font-family="Inter,sans-serif" font-size="8" fill="#2563eb">43% complete</text>

  <rect x="952" y="210" width="130" height="56" rx="5" fill="#1f1010" stroke="#3f1414" stroke-width="0.8" opacity="0.88"/>
  <rect x="952" y="210" width="4" height="56" rx="2" fill="#dc2626"/>
  <text x="963" y="224" font-family="Inter,sans-serif" font-size="8" fill="#f87171">BUG</text>
  <text x="963" y="239" font-family="Inter,sans-serif" font-size="10" fill="#e2e8f0" font-weight="500">Memory leak fix</text>
  <text x="963" y="253" font-family="Inter,sans-serif" font-size="9" fill="#64748b">● Tom Wright</text>
  <text x="963" y="265" font-family="Inter,sans-serif" font-size="8" fill="#f59e0b">High priority</text>

  <!-- IN TESTING cards -->
  <rect x="1107" y="60" width="130" height="70" rx="5" fill="#1a1408" stroke="#3d2f0a" stroke-width="0.8"/>
  <rect x="1107" y="60" width="4" height="70" rx="2" fill="#d97706"/>
  <text x="1118" y="74" font-family="Inter,sans-serif" font-size="8" fill="#fbbf24">STORY</text>
  <rect x="1183" y="64" width="50" height="12" rx="3" fill="#2a2005"/>
  <text x="1208" y="73" text-anchor="middle" font-family="Inter,sans-serif" font-size="7" fill="#fbbf24">Acme Corp</text>
  <text x="1118" y="89" font-family="Inter,sans-serif" font-size="10" fill="#e2e8f0" font-weight="500">Payments flow</text>
  <text x="1118" y="103" font-family="Inter,sans-serif" font-size="9" fill="#64748b">● QA Team</text>
  <text x="1118" y="117" font-family="Inter,sans-serif" font-size="8" fill="#d97706">Pass 12/15 tests</text>

  <rect x="1107" y="138" width="130" height="58" rx="5" fill="#1a1408" stroke="#3d2f0a" stroke-width="0.8" opacity="0.85"/>
  <rect x="1107" y="138" width="4" height="58" rx="2" fill="#0891b2"/>
  <text x="1118" y="152" font-family="Inter,sans-serif" font-size="8" fill="#22d3ee">STORY</text>
  <text x="1118" y="167" font-family="Inter,sans-serif" font-size="10" fill="#e2e8f0" font-weight="500">Notifications</text>
  <text x="1118" y="181" font-family="Inter,sans-serif" font-size="9" fill="#64748b">● QA Team</text>
  <text x="1118" y="193" font-family="Inter,sans-serif" font-size="8" fill="#0891b2">UAT in progress</text>

  <!-- DONE cards -->
  <rect x="1262" y="60" width="130" height="60" rx="5" fill="#11101c" stroke="#2a2540" stroke-width="0.8" opacity="0.9"/>
  <rect x="1262" y="60" width="4" height="60" rx="2" fill="#7c3aed" opacity="0.7"/>
  <text x="1273" y="74" font-family="Inter,sans-serif" font-size="8" fill="#a78bfa" opacity="0.7">STORY</text>
  <text x="1375" y="73" font-family="JetBrains Mono,monospace" font-size="12" fill="#22c55e">&#x2713;</text>
  <text x="1273" y="89" font-family="Inter,sans-serif" font-size="10" fill="#94a3b8" font-weight="500" opacity="0.75">Onboarding flow</text>
  <text x="1273" y="103" font-family="Inter,sans-serif" font-size="9" fill="#475569" opacity="0.6">Shipped Feb 12</text>
  <text x="1273" y="114" font-family="Inter,sans-serif" font-size="8" fill="#475569" opacity="0.5">Alice Johnson</text>

  <rect x="1262" y="128" width="130" height="56" rx="5" fill="#11101c" stroke="#2a2540" stroke-width="0.8" opacity="0.82"/>
  <rect x="1262" y="128" width="4" height="56" rx="2" fill="#059669" opacity="0.7"/>
  <text x="1273" y="142" font-family="Inter,sans-serif" font-size="8" fill="#34d399" opacity="0.7">EPIC</text>
  <text x="1375" y="141" font-family="JetBrains Mono,monospace" font-size="12" fill="#22c55e">&#x2713;</text>
  <text x="1273" y="157" font-family="Inter,sans-serif" font-size="10" fill="#94a3b8" font-weight="500" opacity="0.72">Auth v2 complete</text>
  <text x="1273" y="176" font-family="Inter,sans-serif" font-size="8" fill="#22c55e" opacity="0.5">Shipped Feb 28</text>

  <rect x="1262" y="192" width="130" height="52" rx="5" fill="#11101c" stroke="#2a2540" stroke-width="0.8" opacity="0.7"/>
  <rect x="1262" y="192" width="4" height="52" rx="2" fill="#2563eb" opacity="0.6"/>
  <text x="1273" y="206" font-family="Inter,sans-serif" font-size="8" fill="#60a5fa" opacity="0.6">BUG</text>
  <text x="1375" y="205" font-family="JetBrains Mono,monospace" font-size="12" fill="#22c55e">&#x2713;</text>
  <text x="1273" y="221" font-family="Inter,sans-serif" font-size="10" fill="#94a3b8" font-weight="500" opacity="0.65">CORS headers fix</text>
  <text x="1273" y="237" font-family="Inter,sans-serif" font-size="8" fill="#22c55e" opacity="0.45">Shipped Mar 01</text>

  <rect x="1262" y="252" width="130" height="48" rx="5" fill="#0d0c17" stroke="#201c38" stroke-width="0.8" opacity="0.55"/>
  <rect x="1262" y="252" width="4" height="48" rx="2" fill="#6366f1" opacity="0.5"/>
  <text x="1273" y="266" font-family="Inter,sans-serif" font-size="8" fill="#818cf8" opacity="0.5">STORY</text>
  <text x="1273" y="281" font-family="Inter,sans-serif" font-size="10" fill="#6b7280" font-weight="500" opacity="0.55">Profile settings</text>
  <text x="1273" y="294" font-family="Inter,sans-serif" font-size="8" fill="#22c55e" opacity="0.38">Shipped Mar 05</text>

  <rect x="1262" y="308" width="130" height="48" rx="5" fill="#0d0c17" stroke="#201c38" stroke-width="0.8" opacity="0.4"/>
  <rect x="1262" y="308" width="4" height="48" rx="2" fill="#7c3aed" opacity="0.4"/>
  <text x="1273" y="322" font-family="Inter,sans-serif" font-size="8" fill="#a78bfa" opacity="0.38">STORY</text>
  <text x="1273" y="337" font-family="Inter,sans-serif" font-size="10" fill="#6b7280" font-weight="500" opacity="0.45">Role management</text>
  <text x="1273" y="350" font-family="Inter,sans-serif" font-size="8" fill="#22c55e" opacity="0.3">Shipped Mar 10</text>

  <rect x="1262" y="364" width="130" height="48" rx="5" fill="#0d0c17" stroke="#201c38" stroke-width="0.8" opacity="0.25"/>
  <rect x="1262" y="364" width="4" height="48" rx="2" fill="#059669" opacity="0.28"/>
  <text x="1273" y="378" font-family="Inter,sans-serif" font-size="8" fill="#34d399" opacity="0.25">STORY</text>
  <text x="1273" y="393" font-family="Inter,sans-serif" font-size="10" fill="#6b7280" font-weight="500" opacity="0.32">Email templates</text>
  <text x="1273" y="406" font-family="Inter,sans-serif" font-size="8" fill="#22c55e" opacity="0.2">Shipped Mar 14</text>

  <!-- Kanban label -->
  <rect x="1255" y="846" width="140" height="16" rx="3" fill="#1e1a2d" opacity="0.45"/>
  <text x="1325" y="857" text-anchor="middle" font-family="JetBrains Mono,monospace" font-size="8" fill="#4a3a7a" opacity="0.65">KANBAN BOARD</text>

  <!-- Bottom legend -->
  <rect x="0" y="826" width="780" height="74" fill="#050810" opacity="0.7"/>
  <rect x="780" y="826" width="660" height="74" fill="#050810" opacity="0.6"/>
  <g font-family="Inter,sans-serif" font-size="9" opacity="0.55">
    <rect x="18" y="842" width="22" height="9" rx="2" fill="url(#barBlue)" opacity="0.85"/>
    <text x="46" y="850" fill="#60a5fa">In progress</text>
    <rect x="108" y="842" width="22" height="9" rx="2" fill="url(#barGreen)" opacity="0.85"/>
    <text x="136" y="850" fill="#34d399">On track</text>
    <rect x="194" y="842" width="22" height="9" rx="2" fill="url(#barAmber)" opacity="0.85"/>
    <text x="222" y="850" fill="#fbbf24">At risk</text>
    <rect x="270" y="842" width="22" height="9" rx="2" fill="url(#barRed)" opacity="0.85"/>
    <text x="298" y="850" fill="#f87171">Blocked</text>
    <rect x="348" y="842" width="22" height="9" rx="2" fill="url(#barPurple)" opacity="0.85"/>
    <text x="376" y="850" fill="#a78bfa">Planned</text>
    <text x="18" y="870" fill="#4a6fa5">Sprint Q1 2026  ·  15 stories  ·  4 epics  ·  3 bugs  ·  Velocity: 42 pts</text>
  </g>

  <!-- Vignette -->
  <rect width="1440" height="900" fill="url(#vig)"/>
</svg>