<?xml version="1.0"?>
<svg width="762" height="732" xmlns="http://www.w3.org/2000/svg" xmlns:svg="http://www.w3.org/2000/svg" enable-background="new 0 0 762 732" version="1.1" xml:space="preserve">
 <g class="layer">
  <title>Layer 1</title>
  <path d="m409,733c-136.33,0 -272.17,0 -408,0c0,-244 0,-488 0,-732c254,0 508,0 762,0c0,244 0,488 0,732c-117.83,0 -235.67,0 -354,0m218.82,-497.64c-53.76,-86.79 -131.57,-132.04 -234.46,-135.35c-0.52,-0.03 -1.03,-0.06 -1.46,-1.01c0,-19.25 0,-38.51 0,-57.75c-106.33,-1.14 -225.99,54.23 -291.27,172.49c-61.76,111.88 -53.38,251.19 23.76,355.31c66,89.06 156.15,132.9 267.17,136.43c0,-20.56 0,-40.05 -0.07,-59.5c0,0 -0.03,0.07 0.97,0.05c12.93,-0.94 25.98,-1.09 38.78,-2.96c65.91,-9.62 121.04,-39.63 165.5,-89.16c12.46,-13.88 23.51,-28.85 32.79,-45.91c32.35,-57.67 42.6,-119.16 31.14,-184.15c-5.51,-31.19 -16.36,-60.56 -32.85,-88.49z" fill="#FFFFFF" id="svg_1" opacity="0"/>
  <path d="m391.81,99.93c0.52,0.02 1.03,0.05 1.88,0.56c0.27,28.65 0.25,56.81 0.07,84.97c-0.01,1.88 -1.18,3.75 -2.27,5.58c-11.53,1.01 -22.85,0.98 -33.66,3.3c-62.92,13.51 -108.02,49.84 -132.55,109.27c-24.6,59.58 -17.93,117.38 17.05,171.34c17.66,27.23 41.85,47.78 71.19,62.04c23.12,11.22 47.54,17.06 73.17,17.87c1.5,0.05 3.04,-1.2 4.74,-1.73c0.38,0.33 0.52,0.57 0.46,1.32c-0.22,30.84 -0.33,61.22 -0.43,91.6c0,0 0.03,-0.07 -0.43,-0.06c-2.78,-0.16 -5.1,-0.4 -7.43,-0.47c-39.75,-1.23 -77.29,-11.18 -112.81,-28.85c-30.16,-15.01 -56.46,-35.21 -79,-60.21c-42.81,-47.48 -66.42,-103.24 -70.58,-166.99c-1.62,-24.95 0.2,-49.8 5.72,-74.32c15.11,-67.06 50.35,-121.09 105.34,-162.07c31.33,-23.36 66.47,-38.81 104.71,-47.07c18.07,-3.91 36.43,-5.2 54.83,-6.08z" fill="#F9F9F9" id="svg_2" opacity="1"/>
  <path d="m391.86,99.47c-18.45,1.34 -36.81,2.63 -54.88,6.54c-38.24,8.26 -73.38,23.71 -104.71,47.07c-54.99,40.98 -90.23,95.01 -105.34,162.07c-5.52,24.52 -7.34,49.37 -5.72,74.32c4.16,63.75 27.77,119.51 70.58,166.99c22.54,25 48.84,45.2 79,60.21c35.52,17.67 73.06,27.62 112.81,28.85c2.33,0.07 4.65,0.31 7.46,0.45c0.5,19.46 0.5,38.95 0.5,59.51c-111.02,-3.53 -201.17,-47.37 -267.17,-136.43c-77.14,-104.12 -85.52,-243.43 -23.76,-355.31c65.28,-118.26 184.94,-173.63 291.27,-172.49c0,19.24 0,38.5 -0.04,58.22z" fill="#010101" id="svg_3" opacity="1"/>
  <path d="m391.96,646.04c-0.4,-30.37 -0.29,-60.75 0.39,-91.52c27.07,-0.29 52.29,-6.01 76.27,-17.17c34.81,-16.19 61.54,-41.25 81.26,-73.97c1.85,1.14 3.47,2 5.05,2.9c24.69,14.07 49.37,28.14 74.05,42.21c-8.73,16.57 -19.78,31.54 -32.24,45.42c-44.46,49.53 -99.59,79.54 -165.5,89.16c-12.8,1.87 -25.85,2.02 -39.28,2.97z" fill="#0130A4" id="svg_4" opacity="1"/>
  <path d="m629.26,508.25c-24.96,-13.83 -49.64,-27.9 -74.33,-41.97c-1.58,-0.9 -3.2,-1.76 -4.9,-3.24c23.79,-44.13 29.83,-90.06 16.57,-137.88c-4.13,-14.88 -11.62,-28.82 -17.26,-43.34c26.43,-15.36 52.54,-30.57 78.66,-45.78c16.31,27.25 27.16,56.62 32.67,87.81c11.46,64.99 1.21,126.48 -31.41,184.4z" fill="#FF8532" id="svg_5" opacity="1"/>
  <path d="m627.91,235.7c-26.03,15.55 -52.14,30.76 -78.8,45.87c-7.89,-10.14 -14.37,-20.97 -22.73,-30.08c-36.03,-39.21 -80.8,-59.38 -134.37,-59.74c-0.08,-0.21 -0.06,-0.67 -0.06,-0.67c0.63,-1.87 1.8,-3.74 1.81,-5.62c0.18,-28.16 0.2,-56.32 0.32,-84.94c102.17,2.8 179.98,48.05 233.83,135.18z" fill="#10781F" id="svg_6" opacity="1"/>
  <path d="m391.49,191.04c0.46,0.04 0.44,0.5 0.48,1.19c0.04,47.59 0.04,94.5 0.04,141.61c2.64,0 4.62,-0.07 6.6,0.01c5,0.2 6.04,1.75 4.12,6.23c-1.43,3.33 -2.89,6.66 -4.55,9.89c-4.45,8.7 -6.49,17.64 -6.41,27.64c0.29,37.31 -0.24,74.63 -0.4,111.95c-0.1,21.15 -0.08,42.3 -0.12,63.46c-1.52,0.64 -3.06,1.89 -4.56,1.84c-25.63,-0.81 -50.05,-6.65 -73.17,-17.87c-29.34,-14.26 -53.53,-34.81 -71.19,-62.04c-34.98,-53.96 -41.65,-111.76 -17.05,-171.34c24.53,-59.43 69.63,-95.76 132.55,-109.27c10.81,-2.32 22.13,-2.29 33.66,-3.3m-37.37,210.32c2.11,4.6 4.22,9.2 6.78,14.76c11.44,-25.44 22.53,-50.1 33.87,-75.3c-6.44,0 -12.11,0.22 -17.74,-0.09c-3.05,-0.16 -4.46,1.03 -5.52,3.64c-2.05,5.06 -4.17,10.11 -6.57,15.01c-0.76,1.55 -2.53,2.6 -3.84,3.87c-1.37,-1.42 -3.25,-2.61 -4.01,-4.31c-2.69,-5.97 -4.99,-12.11 -7.27,-17.76c-7.66,0 -14.68,0 -22.25,0c8.91,20.16 17.6,39.81 26.55,60.18m-47.65,-60.53c-5.28,0 -10.57,0 -15.98,0c0,25.95 0,51.46 0,76.96c8.27,0 16.2,0 24.22,0c0,-25.73 0,-51.26 0,-76.96c-2.62,0 -4.93,0 -8.24,0z" fill="#010101" id="svg_7" opacity="1"/>
  <path d="m391.43,553.13c-0.14,-21.27 -0.16,-42.42 -0.06,-63.57c0.16,-37.32 0.69,-74.64 0.4,-111.95c-0.08,-10 1.96,-18.94 6.41,-27.64c1.66,-3.23 3.12,-6.56 4.55,-9.89c1.92,-4.48 0.88,-6.03 -4.12,-6.23c-1.98,-0.08 -3.96,-0.01 -6.6,-0.01c0,-47.11 0,-94.02 0.03,-141.4c53.54,-0.33 98.31,19.84 134.34,59.05c8.36,9.11 14.84,19.94 22.42,30.23c6.18,14.62 13.67,28.56 17.8,43.44c13.26,47.82 7.22,93.75 -16.83,137.63c-19.61,33.31 -46.34,58.37 -81.15,74.56c-23.98,11.16 -49.2,16.88 -76.16,16.71c-0.51,-0.36 -0.65,-0.6 -1.03,-0.93m106.81,-125.93c1.49,-0.06 2.99,-0.08 4.49,-0.19c16.97,-1.15 29.9,-8.61 36.25,-24.86c2.51,-6.4 3.52,-13.45 4.68,-20.29c0.74,-4.37 2.84,-6.71 7.1,-6.58c3.92,0.11 5.02,-2.1 5.05,-5.25c0.1,-9.99 0.09,-19.99 0.02,-29.98c-0.02,-3.03 -1.41,-5.13 -4.8,-5.06c-5.32,0.12 -10.7,-0.12 -15.95,0.56c-15.77,2.02 -29.47,13.32 -30.3,29.84c-0.23,4.47 -0.93,8.91 -1.29,13.38c-0.43,5.2 -3.44,7.62 -8.37,8c-1.78,0.13 -3.58,0.02 -5.64,0.02c2.6,-18.1 -2.73,-33.33 -16.72,-44.95c-14.46,-12.02 -38.37,-13.26 -54.21,-3.39c-17.99,11.19 -26.66,31.25 -22.18,51.3c7.5,33.54 45.74,47.8 74.58,27.81c4.57,-3.16 4.69,-4.23 1.03,-8.63c-5.66,-6.78 -11.31,-13.57 -17.34,-20.81c11.63,0 22.56,0 33.16,0c0,11.57 0.04,23.06 -0.02,34.54c-0.01,3.2 1.57,4.52 4.58,4.53c1.67,0.01 3.33,0.01 5.88,0.01z" fill="#FEFEFE" id="svg_8" opacity="1"/>
  <path d="m353.99,401c-8.82,-20.01 -17.51,-39.66 -26.42,-59.82c7.57,0 14.59,0 22.25,0c2.28,5.65 4.58,11.79 7.27,17.76c0.76,1.7 2.64,2.89 4.01,4.31c1.31,-1.27 3.08,-2.32 3.84,-3.87c2.4,-4.9 4.52,-9.95 6.57,-15.01c1.06,-2.61 2.47,-3.8 5.52,-3.64c5.63,0.31 11.3,0.09 17.74,0.09c-11.34,25.2 -22.43,49.86 -33.87,75.3c-2.56,-5.56 -4.67,-10.16 -6.91,-15.12z" fill="#F5F5F5" id="svg_9" opacity="1"/>
  <path d="m306.96,340.83c2.82,0 5.13,0 7.75,0c0,25.7 0,51.23 0,76.96c-8.02,0 -15.95,0 -24.22,0c0,-25.5 0,-51.01 0,-76.96c5.41,0 10.7,0 16.47,0z" fill="#F8F8F8" id="svg_10" opacity="1"/>
  <path d="m497.8,427.2c-2.11,0 -3.77,0 -5.44,-0.01c-3.01,-0.01 -4.59,-1.33 -4.58,-4.53c0.06,-11.48 0.02,-22.97 0.02,-34.54c-10.6,0 -21.53,0 -33.16,0c6.03,7.24 11.68,14.03 17.34,20.81c3.66,4.4 3.54,5.47 -1.03,8.63c-28.84,19.99 -67.08,5.73 -74.58,-27.81c-4.48,-20.05 4.19,-40.11 22.18,-51.3c15.84,-9.87 39.75,-8.63 54.21,3.39c13.99,11.62 19.32,26.85 16.72,44.95c2.06,0 3.86,0.11 5.64,-0.02c4.93,-0.38 7.94,-2.8 8.37,-8c0.36,-4.47 1.06,-8.91 1.29,-13.38c0.83,-16.52 14.53,-27.82 30.3,-29.84c5.25,-0.68 10.63,-0.44 15.95,-0.56c3.39,-0.07 4.78,2.03 4.8,5.06c0.07,9.99 0.08,19.99 -0.02,29.98c-0.03,3.15 -1.13,5.36 -5.05,5.25c-4.26,-0.13 -6.36,2.21 -7.1,6.58c-1.16,6.84 -2.17,13.89 -4.68,20.29c-6.35,16.25 -19.28,23.71 -36.25,24.86c-1.5,0.11 -3,0.13 -4.93,0.19m-79.11,-15.3c14.17,11.52 38.7,8.8 46.69,0.14c-4.18,-5.06 -8.38,-10.15 -12.55,-15.18c-8.18,4.77 -16.66,3.57 -20.9,-3.29c-5.87,-9.48 -6.36,-19.51 -0.77,-29.26c3.46,-6.04 9.18,-8.3 16.15,-7.24c4.86,0.74 9.21,4.76 10.53,9.9c1.06,4.13 -0.27,5.95 -4.57,6.03c-3.93,0.08 -7.87,0.02 -11.99,0.02c0,3.08 0,5.44 0,7.63c14.14,0 27.89,0 41.62,0c0.47,-20.16 -11.26,-36.19 -29.45,-40.56c-19.9,-4.78 -38.51,4.12 -47.55,22.73c-7.94,16.34 -2.79,36.94 12.79,49.08m117.78,-29.86c0.96,-6.38 2.89,-11.96 10.39,-13.34c0.77,-0.14 1.84,-1.51 1.86,-2.33c0.14,-8.06 0.08,-16.14 0.08,-24.17c-4.02,0 -7.36,-0.25 -10.66,0.04c-13.49,1.19 -26.12,9.47 -26.57,25.59c-0.08,2.82 -0.08,5.71 -0.75,8.42c-1.05,4.24 -1.67,9.15 -4.27,12.3c-2.57,3.1 -7.38,4.36 -11.46,6.57c0,7.8 0,16.22 0,24.96c12.39,0.32 23.82,-1.51 32.14,-11.46c6.13,-7.35 8.31,-16.37 9.24,-26.58m-85.37,6.09c-4.67,0 -9.33,0 -14.58,0c5.54,6.24 7.98,6.24 14.58,0z" fill="#0B0B0B" id="svg_11" opacity="1"/>
  <path d="m418.38,411.71c-15.27,-11.95 -20.42,-32.55 -12.48,-48.89c9.04,-18.61 27.65,-27.51 47.55,-22.73c18.19,4.37 29.92,20.4 29.45,40.56c-13.73,0 -27.48,0 -41.62,0c0,-2.19 0,-4.55 0,-7.63c4.12,0 8.06,0.06 11.99,-0.02c4.3,-0.08 5.63,-1.9 4.57,-6.03c-1.32,-5.14 -5.67,-9.16 -10.53,-9.9c-6.97,-1.06 -12.69,1.2 -16.15,7.24c-5.59,9.75 -5.1,19.78 0.77,29.26c4.24,6.86 12.72,8.06 20.9,3.29c4.17,5.03 8.37,10.12 12.55,15.18c-7.99,8.66 -32.52,11.38 -47,-0.33z" fill="#F9F9F9" id="svg_12" opacity="1"/>
  <path d="m536.46,382.47c-0.92,9.78 -3.1,18.8 -9.23,26.15c-8.32,9.95 -19.75,11.78 -32.14,11.46c0,-8.74 0,-17.16 0,-24.96c4.08,-2.21 8.89,-3.47 11.46,-6.57c2.6,-3.15 3.22,-8.06 4.27,-12.3c0.67,-2.71 0.67,-5.6 0.75,-8.42c0.45,-16.12 13.08,-24.4 26.57,-25.59c3.3,-0.29 6.64,-0.04 10.66,-0.04c0,8.03 0.06,16.11 -0.08,24.17c-0.02,0.82 -1.09,2.19 -1.86,2.33c-7.5,1.38 -9.43,6.96 -10.4,13.77z" fill="#F8F8F8" id="svg_13" opacity="1"/>
  <path d="m451.2,388.48c-6.7,5.89 -9.14,5.89 -14.68,-0.35c5.25,0 9.91,0 14.68,0.35z" fill="#EDEDED" id="svg_14" opacity="1"/>
 </g>
</svg>